HIERARCHY
ROOT Hips
{
	OFFSET 0.00000 0.00000 0.00000
	CHANNELS 6 Xposition Yposition Zposition Zrotation Yrotation Xrotation 
	JOINT LHipJoint
	{
		OFFSET 0 0 0
		CHANNELS 3 Zrotation Yrotation Xrotation
		JOINT LeftHip
		{
			OFFSET 1.26600 -1.82114 0.91038
			CHANNELS 3 Zrotation Yrotation Xrotation
			JOINT LeftKnee
			{
				OFFSET 2.50076 -6.87080 0.00000
				CHANNELS 3 Zrotation Yrotation Xrotation
				JOINT LeftAnkle
				{
					OFFSET 2.57364 -7.07102 0.00000
					CHANNELS 3 Zrotation Yrotation Xrotation
					JOINT LeftToe
					{
						OFFSET 0.13572 -0.37290 1.97004
						CHANNELS 3 Zrotation Yrotation Xrotation
						End Site
						{
							OFFSET 0.00000 -0.00000 1.01383
						}
					}
				}
			}
		}
	}
	JOINT RHipJoint
	{
		OFFSET 0 0 0
		CHANNELS 3 Zrotation Yrotation Xrotation
		JOINT RightHip
		{
			OFFSET -1.20803 -1.82114 0.91038
			CHANNELS 3 Zrotation Yrotation Xrotation
			JOINT RightKnee
			{
				OFFSET -2.54916 -7.00377 0.00000
				CHANNELS 3 Zrotation Yrotation Xrotation
				JOINT RightAnkle
				{
					OFFSET -2.56374 -7.04382 0.00000
					CHANNELS 3 Zrotation Yrotation Xrotation
					JOINT RightToe
					{
						OFFSET -0.23520 -0.64621 2.09921
						CHANNELS 3 Zrotation Yrotation Xrotation
						End Site
						{
							OFFSET -0.00000 -0.00000 1.10065
						}
					}
				}
			}
		}
	}
	JOINT lowerback
	{
		OFFSET 0 0 0
		CHANNELS 3 Zrotation Yrotation Xrotation
		JOINT Chest
		{
			OFFSET 0.05492 2.10797 -0.12074
			CHANNELS 3 Zrotation Yrotation Xrotation
			JOINT Chest2
			{
				OFFSET 0.04577 2.11592 -0.04483
				CHANNELS 3 Zrotation Yrotation Xrotation
				JOINT lowerneck
				{
					OFFSET 0 0 0
					CHANNELS 3 Zrotation Yrotation Xrotation
					JOINT Neck
					{
						OFFSET -0.10759 1.80167 0.15770
						CHANNELS 3 Zrotation Yrotation Xrotation
						JOINT Head
						{
							OFFSET 0.09237 1.77509 -0.40848
							CHANNELS 3 Zrotation Yrotation Xrotation
							End Site
							{
								OFFSET 0.03805 1.84093 -0.15754
							}
						}
					}
				}
				JOINT LeftCollar
				{
					OFFSET 0 0 0
					CHANNELS 3 Zrotation Yrotation Xrotation
					JOINT LeftShoulder
					{
						OFFSET 3.42372 1.09575 -0.28209
CHANNELS 3 Zrotation Xrotation Yrotation
						JOINT LeftElbow
						{
OFFSET 0 -4.956810 0.000000
CHANNELS 3 Zrotation Xrotation Yrotation
							JOINT LeftWrist
							{
OFFSET 0 -3.409150 0.000000
CHANNELS 3 Zrotation Xrotation Yrotation
								JOINT lhand
								{
									OFFSET 0 0 0
CHANNELS 3 Zrotation Xrotation Yrotation
									JOINT LFingers
									{
OFFSET 0 -0.616400 0.000000
CHANNELS 3 Zrotation Xrotation Yrotation
										End Site
										{
OFFSET 0 -0.496960 0.000000
										}
									}
								}
								JOINT LThumb
								{
OFFSET 0 0.000000 0.000000
CHANNELS 3 Zrotation Xrotation Yrotation
									End Site
									{
OFFSET 0 -0.504550 0.504550
									}
								}
							}
						}
					}
				}
				JOINT RightCollar
				{
					OFFSET 0 0 0
					CHANNELS 3 Zrotation Yrotation Xrotation
					JOINT RightShoulder
					{
						OFFSET -3.24731 1.15872 -0.32221
CHANNELS 3 Zrotation Xrotation Yrotation
						JOINT RightElbow
						{
OFFSET 0 -5.352000 0.000000
CHANNELS 3 Zrotation Xrotation Yrotation
							JOINT RightWrist
							{
OFFSET 0 -3.437210 -0.000000
CHANNELS 3 Zrotation Xrotation Yrotation
								JOINT rhand
								{
									OFFSET 0 0 0
CHANNELS 3 Zrotation Xrotation Yrotation
									JOINT RFingers
									{
OFFSET 0 -0.720090 0.000000
CHANNELS 3 Zrotation Xrotation Yrotation
										End Site
										{
OFFSET 0 -0.580560 0.000000
										}
									}
								}
								JOINT RThumb
								{
OFFSET 0 0.000000 0.000000
CHANNELS 3 Zrotation Xrotation Yrotation
									End Site
									{
OFFSET 0 -0.589420 0.589420
									}
								}
							}
						}
					}
				}
			}
		}
	}
}
MOTION
Frames: 12
Frame Time: 0.008333333333333333
-0.180900 20.697500 12.203900 -38.241300 -83.140100 41.459300 0.000000 0.000000 0.000000 -14.991500 -5.438600 -8.782500 2.582000 9.985500 28.929900 0.347300 -14.811900 -13.936300 0.390000 4.010300 11.105800 0.000000 0.000000 0.000000 28.116100 -0.736600 -9.200400 -2.653600 -10.111900 29.340000 -1.411400 1.166200 -22.118400 -0.237400 -3.136000 8.657500 4.004200 1.984800 0.233800 3.024400 2.635900 -0.524800 0.841900 1.283200 -0.630800 -6.042200 0.132400 -19.417200 1.166800 1.533900 27.521200 1.685900 0.066800 12.274600 -0.000000 -0.000000 0.000000 -1.515700 6.080700 -23.556300 14.408500 -23.315700 2.987900 17.958900 6.370200 -21.998400 0.000000 0.000000 0.000000 -7.125000 0.000000 0.000000 -11.218300 52.644200 2.132000 -0.000000 -0.000000 0.000000 -1.434900 1.705700 19.084600 -13.808600 -22.460400 -2.754600 -21.288400 -12.627000 -10.460400 0.000000 0.000000 0.000000 7.125000 0.000000 -0.000000 4.070700 18.787900 2.549200
-0.167899 20.705146 12.212116 -34.499503 -83.183820 37.871209 0.000000 0.000000 0.000000 -15.519520 -5.858683 -8.666342 2.525605 9.884402 28.603120 0.362045 -14.330859 -13.833273 0.349138 3.794760 10.500271 0.000000 0.000000 0.000000 27.680780 -0.177361 -9.289499 -2.679526 -10.157230 29.487572 -1.440852 0.836396 -22.449686 -0.292403 -3.476947 9.609532 3.636366 1.835843 0.248461 2.976442 2.441546 -0.573643 0.996528 1.188249 -0.705118 -6.559005 0.106164 -19.002149 1.619385 1.495762 27.178677 1.929941 0.068062 12.046706 0.000000 0.000000 0.000000 -1.825268 6.089323 -23.262579 14.426169 -23.340632 2.994861 18.124121 6.458068 -21.911393 0.000000 0.000000 0.000000 -7.125000 0.000000 0.000000 -11.019475 52.585716 2.077566 0.000000 0.000000 0.000000 -1.574789 1.871798 19.869512 -13.811590 -22.464781 -2.755721 -21.871251 -12.822482 -10.818213 0.000000 0.000000 0.000000 7.125000 0.000000 0.000000 3.668858 18.358460 2.331381
-0.146312 20.713094 12.212708 -35.032135 -83.120337 38.419845 0.000000 0.000000 0.000000 -15.435895 -5.509603 -8.968631 2.549287 9.926890 28.740437 0.376993 -14.385417 -14.000268 0.326487 3.671328 10.154007 0.000000 0.000000 0.000000 27.692875 -0.456657 -9.499584 -2.666985 -10.135382 29.416285 -1.403529 1.116216 -22.069607 -0.309447 -3.575796 9.886163 3.337200 1.679742 0.461478 3.200991 2.237651 -0.474889 1.389887 1.087671 -0.745404 -6.930351 -0.086690 -18.992749 2.077150 1.199058 27.191120 2.119627 -0.042811 12.056685 0.000000 0.000000 0.000000 -2.271593 5.878192 -22.882974 14.463818 -23.393831 3.009847 17.379662 5.791555 -21.322751 0.000000 0.000000 0.000000 -7.125000 0.000000 0.000000 -11.525654 51.862744 1.969491 0.000000 0.000000 0.000000 -1.947190 1.818624 20.692944 -14.042384 -22.795245 -2.844537 -21.204545 -13.429566 -10.485780 0.000000 0.000000 0.000000 7.125000 0.000000 0.000000 4.130713 18.767601 2.588872
-0.104463 20.729113 12.193665 -34.664249 -83.501618 38.448293 0.000000 0.000000 0.000000 -15.682111 -5.786516 -9.292765 2.485753 9.812014 28.370122 0.384812 -13.768442 -13.779499 0.380699 3.962503 10.971224 0.000000 0.000000 0.000000 27.582656 1.081404 -9.715661 -2.727652 -10.240490 29.758996 -1.403309 0.120662 -22.374016 -0.352774 -3.816017 10.559576 2.412129 1.378739 0.488617 3.425442 1.830355 -0.437233 2.140975 0.890146 -0.758171 -7.806435 -0.358137 -18.133104 2.947671 0.742409 26.759012 2.509494 -0.214989 11.728858 0.000000 0.000000 0.000000 -2.929889 5.749837 -21.672487 14.542589 -23.505120 3.041137 17.004153 6.036111 -20.965426 0.000000 0.000000 0.000000 -7.125000 0.000000 0.000000 -11.756398 51.440021 1.886759 0.000000 0.000000 0.000000 -2.256983 1.848844 21.464036 -14.617716 -23.610848 -3.071230 -21.388456 -12.860319 -9.599209 0.000000 0.000000 0.000000 7.125000 0.000000 0.000000 3.979875 19.698040 2.411252
-0.039409 20.730087 12.207234 -40.898417 -84.580723 44.639580 0.000000 0.000000 0.000000 -16.090908 -5.816999 -9.323349 2.480615 9.802638 28.339930 0.427204 -12.394044 -13.585846 0.486230 4.468118 12.398147 0.000000 0.000000 0.000000 27.311151 2.354472 -9.687334 -2.798460 -10.361414 30.155334 -1.366118 0.071323 -22.090174 -0.364974 -3.880779 10.741464 1.795634 1.537512 0.968781 3.487505 2.045526 -0.095104 2.539345 1.001759 -0.704934 -8.055593 -1.201726 -17.392647 3.625277 -0.688803 26.774358 2.586313 -0.808107 11.679177 0.000000 0.000000 0.000000 -2.853145 5.706934 -22.964736 14.911726 -24.022953 3.189936 16.250288 4.382129 -20.601978 0.000000 0.000000 0.000000 -7.125000 0.000000 0.000000 -12.351157 50.950832 1.834711 0.000000 0.000000 0.000000 -2.731894 1.637347 22.350300 -15.278927 -24.533178 -3.340954 -21.186374 -15.800976 -11.054913 0.000000 0.000000 0.000000 7.125000 0.000000 0.000000 4.158420 18.163624 2.661946
0.012420 20.725550 12.296106 -57.445778 -86.055552 60.813101 0.000000 0.000000 0.000000 -17.029073 -5.717553 -8.638325 2.437382 9.723190 28.084855 0.588236 -10.371397 -14.482281 0.512715 4.577882 12.710311 0.000000 0.000000 0.000000 26.258351 1.525765 -10.145844 -2.914199 -10.554775 30.792625 -1.369752 3.084508 -21.330508 -0.493891 -4.505400 12.503240 2.227355 1.516894 1.403962 3.184816 2.014905 0.547707 1.984680 0.986501 -0.262841 -8.796881 -2.046484 -16.920061 5.229619 -2.283358 27.474451 3.088772 -1.434564 11.992849 0.000000 0.000000 0.000000 -2.768683 5.541762 -22.990327 15.057460 -24.226128 3.249507 16.604112 4.045685 -20.204673 0.000000 0.000000 0.000000 -7.125000 0.000000 0.000000 -11.860181 50.610363 1.660059 0.000000 0.000000 0.000000 -2.682284 0.968122 22.903788 -16.067932 -25.612695 -3.675300 -22.071662 -14.894405 -8.876516 0.000000 0.000000 0.000000 7.125000 0.000000 0.000000 3.475289 20.422164 2.047900
0.138319 20.745021 12.347627 -82.588112 -86.302008 86.547315 0.000000 0.000000 0.000000 -16.734958 -5.106212 -9.980757 2.503849 9.844988 28.476086 0.642430 -9.644545 -14.832721 0.403185 4.076431 11.291706 0.000000 0.000000 0.000000 26.399508 3.073384 -10.676762 -2.884505 -10.505708 30.630329 -1.257745 3.130141 -20.397634 -0.400630 -4.063432 11.255121 2.331928 1.132425 1.991469 3.431353 1.526924 0.464127 2.174732 0.737019 -0.672579 -9.177142 -2.672902 -15.492653 6.017382 -3.597040 28.130106 3.265277 -2.030242 12.093434 0.000000 0.000000 0.000000 -3.179938 5.615282 -21.114790 14.592734 -23.575696 3.061155 13.211165 6.400874 -18.809557 0.000000 0.000000 0.000000 -7.125000 0.000000 0.000000 -14.572839 48.706042 1.358634 0.000000 0.000000 0.000000 -2.977373 0.556122 22.511939 -16.563128 -26.278270 -3.891924 -21.231876 -16.016758 -10.828810 0.000000 0.000000 0.000000 7.125000 0.000000 0.000000 4.120131 18.400348 2.615767
0.237073 20.763236 12.408608 -116.984082 -86.057947 121.394452 0.000000 0.000000 0.000000 -17.133805 -4.319992 -10.912460 2.533435 9.898435 28.648409 0.716380 -8.716879 -15.371833 0.296301 3.492445 9.653648 0.000000 0.000000 0.000000 25.796253 3.647437 -11.444646 -2.890017 -10.514839 30.660645 -1.232668 4.231506 -20.014118 -0.371735 -3.913539 10.833709 2.321586 0.871295 2.061664 3.130070 1.165368 0.871527 1.881931 0.559379 -0.280115 -9.365932 -3.603921 -15.030521 7.097862 -5.466614 29.103087 3.444516 -2.807229 12.604380 0.000000 0.000000 0.000000 -2.211073 6.147085 -23.650425 15.160851 -24.369356 3.292267 13.502005 4.443880 -18.684669 0.000000 0.000000 0.000000 -7.125000 0.000000 0.000000 -14.254911 48.625160 1.299203 0.000000 0.000000 0.000000 -2.611215 -0.656163 22.418518 -16.727846 -26.497555 -3.965168 -21.946059 -15.025851 -9.823875 0.000000 0.000000 0.000000 7.125000 0.000000 0.000000 3.587470 19.416056 2.195160
0.331987 20.754874 12.469219 -136.340927 -84.567344 141.127766 0.000000 0.000000 0.000000 -16.932267 -2.794724 -12.376562 2.586268 9.993105 28.954348 0.656887 -9.123146 -14.861538 0.447283 4.266302 11.830695 0.000000 0.000000 0.000000 25.652629 4.554947 -12.332076 -2.976086 -10.656183 31.128960 -1.197402 5.630740 -19.586795 -0.616829 -5.026254 13.983344 1.422385 0.261929 2.176748 3.937225 0.308799 1.154789 3.240526 0.116652 -0.049415 -10.711499 -4.159040 -14.753478 7.524298 -6.298069 30.335701 3.737782 -3.336596 13.216907 0.000000 0.000000 0.000000 -3.479926 5.878046 -22.579439 14.899677 -24.006093 3.185070 15.032720 5.321462 -19.681534 0.000000 0.000000 0.000000 -7.125000 0.000000 0.000000 -13.177309 49.839563 1.598913 0.000000 0.000000 0.000000 -3.872113 -1.486552 22.876399 -16.704094 -26.466072 -3.954534 -21.682470 -16.260067 -10.156044 0.000000 0.000000 0.000000 7.125000 0.000000 0.000000 3.783517 19.081378 2.343881
0.398364 20.775347 12.515976 -143.594756 -83.480977 148.194058 0.000000 0.000000 0.000000 -16.908445 -1.943419 -12.697282 2.647154 10.100646 29.303371 0.654860 -9.367755 -14.893303 0.543173 4.721592 13.116167 0.000000 0.000000 0.000000 25.677820 6.309876 -11.644400 -2.958073 -10.626869 31.031558 -1.189588 5.028934 -19.563797 -0.648846 -5.152544 14.344189 1.122146 -0.297547 2.672055 4.070251 -0.449253 1.481095 3.567288 -0.271342 0.046863 -11.078438 -4.518427 -14.244777 7.772366 -7.114847 31.403890 3.791073 -3.778928 13.688610 0.000000 0.000000 0.000000 -3.252849 5.495872 -22.510154 14.711806 -23.743034 3.108940 15.386426 5.751611 -20.637346 0.000000 0.000000 0.000000 -7.125000 0.000000 0.000000 -13.199877 50.845326 1.929972 0.000000 0.000000 0.000000 -4.102866 -1.687218 22.432370 -16.522616 -26.224182 -3.874065 -22.169529 -16.295407 -9.817452 0.000000 0.000000 0.000000 7.125000 0.000000 0.000000 3.428101 19.405793 2.098096
0.450756 20.753774 12.571780 -154.379105 -84.182091 158.499786 0.000000 0.000000 0.000000 -18.580958 -1.860586 -11.904825 2.456397 9.758154 28.196959 0.623372 -9.562800 -14.623872 0.601194 4.952991 13.776582 0.000000 0.000000 0.000000 23.926400 6.089942 -12.216210 -3.199341 -11.010906 32.316796 -1.249045 5.353823 -20.037158 -0.755511 -5.551429 15.488306 -0.209555 -0.920635 3.123467 3.747589 -1.305262 1.833944 4.011741 -0.708084 0.225127 -11.465612 -4.731381 -14.212739 7.920763 -7.663670 32.791005 3.855367 -4.111915 14.395023 0.000000 0.000000 0.000000 -2.500930 4.934248 -23.318675 14.832274 -23.911938 3.157657 16.717547 5.023351 -20.215595 0.000000 0.000000 0.000000 -7.125000 0.000000 0.000000 -11.754413 50.639758 1.653205 0.000000 0.000000 0.000000 -3.801026 -1.856767 20.180582 -15.588803 -24.959897 -3.470662 -22.657382 -15.863319 -9.789534 0.000000 0.000000 0.000000 7.125000 0.000000 0.000000 3.079790 19.397631 1.884893
0.438503 20.741263 12.631859 -147.126613 -84.495626 151.060484 0.000000 0.000000 0.000000 -18.263592 -2.382312 -11.690553 2.538373 9.907332 28.677126 0.606165 -10.035582 -14.569671 0.722419 5.428069 15.134347 0.000000 0.000000 0.000000 24.162347 4.688124 -12.292273 -3.185912 -10.990103 32.246425 -1.242813 5.822216 -19.953685 -0.533535 -4.673958 12.982088 0.119072 -1.514389 2.631650 4.259929 -2.133085 2.075129 4.359430 -1.141141 0.816473 -12.227759 -4.712470 -13.743435 7.712190 -7.606674 33.697192 3.937725 -4.273443 14.728012 0.000000 0.000000 0.000000 -2.972966 4.148457 -22.507923 15.523487 -24.870163 3.443116 16.303694 4.690142 -21.372250 0.000000 0.000000 0.000000 -7.125000 0.000000 0.000000 -12.599696 51.728822 2.115738 0.000000 0.000000 0.000000 -4.477210 -1.092167 18.404214 -14.625204 -23.621246 -3.074263 -22.061576 -16.058383 -9.696707 0.000000 0.000000 0.000000 7.125000 0.000000 0.000000 3.501884 19.543443 2.132525
